<svg width="201" height="148" fill="none" xmlns="http://www.w3.org/2000/svg"><g clip-path="url(#clip0)"><path d="M193.15 2.5H7.5a5 5 0 00-5 5v132.22a5 5 0 005 5h185.65a5 5 0 005-5V7.5a5 5 0 00-5-5z" stroke="#636363" stroke-width="5" stroke-miterlimit="10"/><path d="M198.15 15.3H86.11v7.94h112.04V15.3zm0 19.84H85.09v7.94h113.06v-7.94zm0 19.84H2.5v7.94h195.65v-7.94zm0 19.84H2.5v7.94h195.65v-7.94zm0 19.84H2.5v7.94h195.65v-7.94z" fill="#636363"/><path fill-rule="evenodd" clip-rule="evenodd" d="M2.71 2.5v60.42h85.6V2.5H2.71zm19.84 45.56l-2.19 1.81a.45.45 0 00-.16.44l.72 2.74a.451.451 0 01-.67.48L17.86 52a.41.41 0 00-.47 0L15 53.53a.44.44 0 01-.66-.48l.71-2.76a.44.44 0 00-.15-.45l-2.19-1.8a.44.44 0 01.26-.78l2.83-.17a.46.46 0 00.39-.28l1-2.64a.44.44 0 01.82 0l1 2.65a.43.43 0 00.38.28l2.83.17a.44.44 0 01.33.79zm0-17.24l-2.19 1.81a.45.45 0 00-.16.44l.72 2.74a.451.451 0 01-.67.48l-2.39-1.53a.41.41 0 00-.47 0L15 36.29a.44.44 0 01-.66-.48l.71-2.75a.44.44 0 00-.15-.45l-2.19-1.8a.44.44 0 01.26-.78l2.83-.17a.46.46 0 00.39-.28l1-2.64a.44.44 0 01.82 0l1 2.65a.43.43 0 00.38.28l2.83.17a.44.44 0 01.33.78zm0-17.24l-2.19 1.81a.45.45 0 00-.16.44l.72 2.74a.451.451 0 01-.67.48l-2.39-1.53a.41.41 0 00-.47 0L15 19.05a.44.44 0 01-.66-.48l.71-2.75a.44.44 0 00-.15-.45l-2.19-1.8a.44.44 0 01.26-.78l2.83-.17a.46.46 0 00.39-.28l1-2.64a.44.44 0 01.82 0l1 2.65a.43.43 0 00.38.28l2.83.17a.44.44 0 01.33.78zm18.27 34.48l-2.19 1.81a.45.45 0 00-.16.44l.68 2.74a.451.451 0 01-.67.48L36.15 52a.41.41 0 00-.47 0l-2.39 1.53a.44.44 0 01-.66-.48l.69-2.76a.44.44 0 00-.15-.45l-2.19-1.8a.44.44 0 01.26-.78l2.83-.17a.46.46 0 00.39-.28l1-2.64a.44.44 0 01.82 0l1 2.65a.43.43 0 00.38.28l2.83.17a.44.44 0 01.33.79zm0-17.24l-2.19 1.81a.45.45 0 00-.16.44l.68 2.74a.451.451 0 01-.67.48l-2.33-1.53a.41.41 0 00-.47 0l-2.41 1.53a.44.44 0 01-.66-.48l.71-2.75a.44.44 0 00-.15-.45l-2.19-1.8a.44.44 0 01.26-.78l2.83-.17a.46.46 0 00.39-.28l1-2.64a.44.44 0 01.82 0l1 2.65a.43.43 0 00.38.28l2.83.17a.44.44 0 01.33.78zm0-17.24l-2.19 1.81a.45.45 0 00-.16.44l.68 2.74a.451.451 0 01-.67.48l-2.33-1.53a.41.41 0 00-.47 0l-2.39 1.53a.44.44 0 01-.66-.48l.71-2.75a.44.44 0 00-.15-.45L31 13.57a.44.44 0 01.26-.78l2.83-.17a.46.46 0 00.39-.28l1-2.64a.44.44 0 01.82 0l1 2.65a.43.43 0 00.38.28l2.83.17a.44.44 0 01.31.78zm18.27 34.48l-2.19 1.81a.45.45 0 00-.16.44l.72 2.74a.451.451 0 01-.67.48L54.4 52a.41.41 0 00-.47 0l-2.39 1.53a.44.44 0 01-.66-.48l.72-2.76a.48.48 0 00-.15-.45l-2.2-1.8a.44.44 0 01.26-.78l2.83-.17a.44.44 0 00.39-.28l1-2.64a.44.44 0 01.82 0l1 2.65a.43.43 0 00.38.28l2.83.17a.44.44 0 01.33.79zm0-17.24l-2.19 1.81a.45.45 0 00-.16.44l.72 2.74a.451.451 0 01-.67.48l-2.39-1.53a.41.41 0 00-.47 0l-2.39 1.53a.44.44 0 01-.66-.48l.72-2.75a.48.48 0 00-.15-.45l-2.2-1.8a.44.44 0 01.26-.78l2.83-.17a.44.44 0 00.39-.28l1-2.64a.44.44 0 01.82 0l1 2.65a.43.43 0 00.38.28l2.83.17a.44.44 0 01.33.78zm0-17.24l-2.19 1.81a.45.45 0 00-.16.44l.72 2.74a.451.451 0 01-.67.48l-2.39-1.53a.41.41 0 00-.47 0l-2.39 1.53a.44.44 0 01-.66-.48l.72-2.75a.48.48 0 00-.15-.45l-2.2-1.8a.44.44 0 01.26-.78l2.83-.17a.44.44 0 00.39-.28l1-2.64a.44.44 0 01.82 0l1 2.65a.43.43 0 00.38.28l2.83.17a.44.44 0 01.33.78zm18.28 34.48l-2.22 1.81a.45.45 0 00-.16.44l.72 2.74a.44.44 0 01-.66.48L72.65 52a.41.41 0 00-.47 0l-2.39 1.53a.44.44 0 01-.66-.48l.74-2.76a.48.48 0 00-.15-.45l-2.2-1.8a.44.44 0 01.26-.78l2.84-.17a.43.43 0 00.38-.28l1-2.64a.44.44 0 01.82 0l1 2.65a.43.43 0 00.38.28l2.95.19a.44.44 0 01.22.77zm0-17.24l-2.22 1.81a.45.45 0 00-.16.44l.72 2.74a.44.44 0 01-.66.48l-2.4-1.53a.41.41 0 00-.47 0l-2.37 1.53a.44.44 0 01-.66-.48l.72-2.75a.48.48 0 00-.15-.45l-2.2-1.8a.44.44 0 01.26-.78l2.84-.17a.43.43 0 00.38-.28l1-2.64a.44.44 0 01.82 0l1 2.65a.43.43 0 00.38.28l2.83.17a.44.44 0 01.34.78zm0-17.24l-2.22 1.81a.45.45 0 00-.16.44l.72 2.74a.44.44 0 01-.66.48l-2.4-1.53a.41.41 0 00-.47 0l-2.39 1.53a.44.44 0 01-.66-.48l.72-2.75a.48.48 0 00-.15-.45l-2.2-1.8a.44.44 0 01.26-.78l2.84-.17a.43.43 0 00.38-.28l1-2.64a.44.44 0 01.82 0l1 2.65a.43.43 0 00.38.28l2.83.17a.44.44 0 01.36.78zM45.31 132.37h3.6l-1.81-5.39-1.79 5.39zm18.37-6.62h-1.46v9.6h1.43a3.209 3.209 0 002.66-1.13 5.131 5.131 0 00.94-3.25v-.77a5.17 5.17 0 00-.91-3.32 3.204 3.204 0 00-1.195-.884 3.199 3.199 0 00-1.465-.246z" fill="#636363"/><path fill-rule="evenodd" clip-rule="evenodd" d="M198.15 113.61H2.71v31.11h195.44v-31.11zM34.76 137.74h-3v-3.94l.29-6.79-3.88 10.73h-2.02l-3.87-10.72.29 6.78v3.94h-3v-14.4h3.87l3.71 10.44 3.68-10.44h3.89l.04 14.4zm16 0l-1-3h-5.2l-1 3h-3.19l5.35-14.4h2.75l5.39 14.4h-3.1zm19.55-6.86a7.58 7.58 0 01-.83 3.57 5.999 5.999 0 01-2.33 2.42 6.84 6.84 0 01-3.39.87h-4.51v-14.4h4.43a6.74 6.74 0 013.4.86 6.004 6.004 0 012.34 2.43 7.508 7.508 0 01.84 3.58l.05.67zm15.84 6.86h-9.69v-14.4h9.63v2.41h-6.66v3.43h5.72v2.3h-5.72v3.87h6.72v2.39zm18 0h-3v-14.4h3v14.4zm18.51 0h-3l-5.75-9.45v9.47h-3v-14.4h3l5.78 9.49v-9.49h3l-.03 14.38zm26.62-4.92a4.843 4.843 0 01-1.48 3.74 5.672 5.672 0 01-4 1.37 5.748 5.748 0 01-4-1.33 4.767 4.767 0 01-1.51-3.67v-9.59h3v9.5a2.734 2.734 0 00.68 2.06c.253.227.549.401.87.512.321.112.661.159 1 .138 1.67 0 2.52-.87 2.54-2.63v-9.58h3l-.1 9.48zm10-4.46c.649.391 1.349.69 2.08.89a8.923 8.923 0 013.68 1.88 3.768 3.768 0 011.16 2.81 3.459 3.459 0 01-1.41 2.93 6.198 6.198 0 01-3.81 1.06 7.398 7.398 0 01-3-.6 4.74 4.74 0 01-2.08-1.67 4.23 4.23 0 01-.72-2.45h3c0 1.59.95 2.38 2.85 2.38a2.725 2.725 0 001.65-.43 1.38 1.38 0 00.59-1.2 1.508 1.508 0 00-.59-1.29 7.673 7.673 0 00-2.13-.95 15.246 15.246 0 01-2.45-1 4.003 4.003 0 01-2.45-3.57 3.459 3.459 0 01.66-2.08 4.287 4.287 0 011.89-1.43 7.142 7.142 0 012.76-.51 6.488 6.488 0 012.75.55c.76.34 1.408.887 1.87 1.58.45.685.683 1.49.67 2.31h-3a1.906 1.906 0 00-.62-1.53 2.529 2.529 0 00-1.75-.55 2.723 2.723 0 00-1.69.46 1.444 1.444 0 00-.6 1.21 1.383 1.383 0 00.68 1.2h.01zm22.1 9.38l-1-3h-5.23l-1 3H171l5.36-14.4h2.79l5.39 14.4h-3.16z" fill="#636363"/><path fill-rule="evenodd" clip-rule="evenodd" d="M175.97 132.37h3.6l-1.81-5.39-1.79 5.39z" fill="#636363"/></g><defs><clipPath id="clip0"><path fill="#fff" d="M0 0h200.65v147.22H0z"/></clipPath></defs></svg>