<svg class="image" xmlns="http://www.w3.org/2000/svg" width="162.31" height="162.31"><circle cx="81.15" cy="81.15" r="77.15" fill="none" stroke="#636363" stroke-width="8"/><path d="M57.52 85.24a15.36 15.36 0 01-5.87 3.9A21.54 21.54 0 0144 90.45q-7.08 0-11-4.38t-4-12.75v-7.38q0-8.47 3.7-13 3.7-4.53 10.8-4.58 6.67 0 10.07 3.3 3.4 3.3 3.93 10.33h-8.05c-.22-2.6-.77-4.4-1.63-5.34a5.28 5.28 0 00-4.06-1.42 5.31 5.31 0 00-4.87 2.45q-1.5 2.46-1.58 7.8v7.43q0 5.6 1.68 8.16c1.1 1.7 3 2.54 5.5 2.54a7.2 7.2 0 004-1l.73-.5v-7.55h-5.8V68.3h14.1zM74.2 48.87l7.75 29.66 7.72-29.66h10.8v41h-8.3V78.8l.76-17.1-8.2 28.2H79.1l-8.2-28.2.76 17.1v11.1h-8.28v-41zm41.2 26.6v14.42h-8.28v-41h14a12.83 12.83 0 019.71 3.78 13.57 13.57 0 013.62 9.8q0 6-3.58 9.52-3.58 3.52-9.92 3.5zm0-6.9h5.7a4.48 4.48 0 003.66-1.56 6.8 6.8 0 001.3-4.5 8.15 8.15 0 00-1.32-4.89 4.27 4.27 0 00-3.55-1.85h-5.78zM49.18 35.52l3.28-2.7a.66.66 0 00-.39-1.17l-4.22-.25a.67.67 0 01-.57-.42l-1.55-4a.66.66 0 00-1.23 0L43 31a.65.65 0 01-.58.41l-4.24.26a.65.65 0 00-.38 1.16L41 35.5a.68.68 0 01.22.67l-1.07 4.1a.66.66 0 001 .72l3.57-2.3a.64.64 0 01.7 0L49 41a.66.66 0 001-.72l-1.07-4.1a.66.66 0 01.25-.67zm18.2 0l3.28-2.7a.66.66 0 00-.38-1.17l-4.22-.25a.68.68 0 01-.58-.42l-1.55-4a.66.66 0 00-1.23 0L61.14 31a.65.65 0 01-.58.41l-4.23.26a.65.65 0 00-.39 1.16l3.28 2.7a.66.66 0 01.22.67l-1.07 4.1a.66.66 0 001 .72l3.57-2.3a.64.64 0 01.7 0L67.2 41a.66.66 0 001-.72l-1.07-4.1a.66.66 0 01.23-.67zm18.2 0l3.28-2.7a.66.66 0 00-.38-1.17l-4.22-.25a.68.68 0 01-.58-.42l-1.55-4a.66.66 0 00-1.23 0L79.33 31a.65.65 0 01-.57.41l-4.24.26a.65.65 0 00-.38 1.16l3.27 2.7a.69.69 0 01.23.67l-1.07 4.1a.66.66 0 001 .72l3.56-2.3a.64.64 0 01.7 0L85.4 41a.66.66 0 001-.72l-1.07-4.1a.67.67 0 01.22-.67zm18.2 0l3.27-2.7a.66.66 0 00-.38-1.17l-4.22-.25a.67.67 0 01-.57-.42l-1.56-4a.66.66 0 00-1.23 0L97.52 31a.64.64 0 01-.57.41l-4.24.26a.65.65 0 00-.38 1.16l3.28 2.7a.68.68 0 01.22.67l-1.07 4.1a.66.66 0 001 .72l3.56-2.3a.65.65 0 01.71 0L103.6 41a.66.66 0 001-.72l-1.07-4.1a.66.66 0 01.23-.67zm18.24 0l3.28-2.7a.66.66 0 00-.39-1.17l-4.22-.25a.67.67 0 01-.57-.42l-1.55-4a.66.66 0 00-1.23 0l-1.6 4.02a.65.65 0 01-.58.41l-4.24.26a.65.65 0 00-.38 1.16l3.28 2.7a.66.66 0 01.22.67L113 40.27a.66.66 0 001 .72l3.57-2.3a.64.64 0 01.7 0l3.52 2.3a.66.66 0 001-.72l-1.07-4.1a.66.66 0 01.28-.67z" fill="#636363"/><path d="M64.52 108.84h-1.9v4.75h1.83a1.7 1.7 0 001.45-.64 2.76 2.76 0 00.48-1.71c0-1.6-.63-2.4-1.87-2.4zm57.14 0h-1.17v10.6h1a2.69 2.69 0 002.27-.85 5 5 0 00.69-2.93v-2.77a5.68 5.68 0 00-.62-3.11 2.53 2.53 0 00-2.17-.93zM17.4 99a65.87 65.87 0 00127.48 0zm21.65 19.77a2 2 0 001.83.89 2.09 2.09 0 001.75-.62 4.13 4.13 0 00.55-2.24h3.22a5.92 5.92 0 01-1.54 4.13 5.39 5.39 0 01-4 1.41 5 5 0 01-4.15-1.79 7.85 7.85 0 01-1.44-5.07v-2.7a7.67 7.67 0 011.49-5.06 5.09 5.09 0 014.14-1.78 5.14 5.14 0 014 1.45 6.65 6.65 0 011.54 4.19H43.2a4.28 4.28 0 00-.52-2.33 2.05 2.05 0 00-1.75-.64 2 2 0 00-1.83.9 6.32 6.32 0 00-.57 3v3a7 7 0 00.53 3.24zm18.5 3.35H48.4v-16h9.14v2.68H51.6v3.77h5v2.6h-5v4.23h5.94zm12.54 0h-3.46l-2.4-5.83h-1.6v5.83H59.4v-16h5.14a5.2 5.2 0 013.74 1.25A4.7 4.7 0 0169.6 111a4.63 4.63 0 01-2.31 4.44l2.8 6.56zm11.5-13.28h-3.94v13.27h-3.23v-13.27h-3.88v-2.68h11zm5.22 13.27h-3.2v-16h3.22zm11.53-13.27h-5.6v4.1h5v2.67h-5v6.5h-3.22v-16h8.83zm5.2 13.27h-3.22v-16h3.22zm11.86 0h-9.16v-16h9.14v2.68h-5.92v3.77h5v2.6h-5v4.23h5.94zm12.2-6.73a6.94 6.94 0 01-1.66 4.93 5.9 5.9 0 01-4.57 1.8h-4.13v-16h4.22a5.81 5.81 0 014.45 1.77 6.93 6.93 0 011.69 4.86z" fill="#636363" fill-rule="evenodd"/></svg>