<svg width="76" height="76" fill="none" xmlns="http://www.w3.org/2000/svg"><path fill-rule="evenodd" clip-rule="evenodd" d="M.957 38.103a37.094 37.094 0 1174.187-.09 37.094 37.094 0 01-74.187.09zm11.509 16h5.99V37.29l5.776 16.644h4.662V22.229h-5.432v15.446L17.643 22.23h-5.177v31.875zm26.655.387c2.483 0 8.215-1.156 8.044-8.728-.17-8.773-9.2-10.056-10.097-15.745-.344-2.184.728-3.425 2.268-3.425 1.711 0 2.268 1.96 2.268 5.094h5.133c-.129-7.533-2.697-9.67-7.359-9.67-5.648 0-7.916 3.506-7.916 8.471 0 9.453 9.67 10.097 9.67 15.83 0 2.097-.642 3.421-1.927 3.421-2.52 0-2.607-2.136-2.607-5.133h-5.68c-.257 6.077 2.737 9.885 8.214 9.885h-.011zm10.397-.56h6.289V40.727h4.92v-5.49h-4.92v-8.121h6.888v-4.887H49.518v31.704-.003zm11.508.3a2.448 2.448 0 01-1.753-4.193 2.484 2.484 0 011.753-.727 2.448 2.448 0 012.44 2.48 2.411 2.411 0 01-2.44 2.44zm-2.01-2.44a2.011 2.011 0 102.01-2.055 1.98 1.98 0 00-2.01 2.056zm1.498.172v1.24h-.429v-2.82h1.076c.683 0 1.027.213 1.027.77 0 .513-.344.725-.77.812l.812 1.24h-.47l-.728-1.24-.518-.002zm0-.342h.512c.345 0 .686-.045.686-.47 0-.342-.3-.429-.599-.429h-.6v.899z" fill="#636363"/></svg>