<svg width="98" height="41" fill="none" xmlns="http://www.w3.org/2000/svg"><path d="M17.313 16.78l-2.905-7.146-.652.268 2.908 7.146.648-.268zm-3.62-7.638a.373.373 0 100-.746.373.373 0 000 .746z" fill="#636363"/><path d="M94.18.084H4.523A3.622 3.622 0 00.902 3.706v33.382a3.622 3.622 0 003.622 3.622H94.18a3.621 3.621 0 003.622-3.622V3.706A3.622 3.622 0 0094.18.084zM30.274 34.368a1.409 1.409 0 01-1.401 1.413H7.114a1.41 1.41 0 01-1.405-1.413V32.25a1.413 1.413 0 011.405-1.416h3.643a8.671 8.671 0 014.484-14.488l-3.654-9.018a1.413 1.413 0 01.768-1.844l1.948-.8a1.409 1.409 0 011.833.771l6.106 15.063a1.42 1.42 0 01-.771 1.844l-1.949.8a1.376 1.376 0 01-1.297-.14 1.41 1.41 0 01-.517-.638l-1.496-3.695a6.186 6.186 0 00-.703 12.145h13.365a1.408 1.408 0 011.402 1.416v2.118zm-9.956-9.054l-.605-1.449 2.268-.963.604 1.448-2.267.964zm5.473-.833l.543 1.304-7.722 3.274-.54-1.304 7.719-3.274zm69.901 11.427a2.534 2.534 0 01-2.586 2.502H37.65L21.844 2.413h71.249a2.536 2.536 0 012.586 2.506l.014 30.989z" fill="#636363"/><path d="M36.33 11.468h.871c.223 0 .405-.04.546-.117a.77.77 0 00.324-.34 1.21 1.21 0 00.106-.525.927.927 0 00-.1-.43.723.723 0 00-.298-.313.981.981 0 00-.514-.122c-.142 0-.28.03-.414.09a.863.863 0 00-.334.245.6.6 0 00-.128.387h-1.793c0-.439.12-.814.36-1.125.245-.315.565-.555.961-.721.4-.17.83-.255 1.29-.255.547 0 1.029.085 1.442.255.414.166.736.413.966.742.233.326.35.729.35 1.21 0 .265-.062.515-.186.748a1.95 1.95 0 01-.52.616 2.605 2.605 0 01-.785.419 3.072 3.072 0 01-.976.148h-1.167v-.912zm0 1.331v-.891h1.168c.386 0 .738.044 1.056.133.318.085.592.212.822.382.23.17.407.38.53.631.125.248.186.532.186.854 0 .361-.072.683-.217.966a2.046 2.046 0 01-.61.716 2.88 2.88 0 01-.918.446c-.35.099-.73.148-1.14.148-.323 0-.645-.042-.966-.127a2.936 2.936 0 01-.881-.403 2.138 2.138 0 01-.642-.7c-.16-.287-.239-.628-.239-1.025h1.794c0 .163.044.312.132.446a.99.99 0 00.366.313c.152.078.317.117.494.117.219 0 .405-.04.557-.122a.89.89 0 00.477-.812c0-.262-.044-.47-.132-.626a.752.752 0 00-.377-.34 1.472 1.472 0 00-.589-.106h-.87zm4.786-4.446h3.04c.595 0 1.111.089 1.55.266.438.177.776.438 1.013.785.24.347.36.774.36 1.284 0 .442-.068.811-.206 1.109-.138.297-.33.543-.578.737a3.251 3.251 0 01-.855.472l-.61.345h-2.552l-.01-1.438h1.888c.237 0 .434-.042.59-.127a.822.822 0 00.35-.36c.08-.16.122-.35.122-.568 0-.223-.041-.414-.123-.573a.84.84 0 00-.36-.366 1.195 1.195 0 00-.579-.128H42.98v6.287h-1.863V8.353zm4.229 7.725l-1.709-3.417 1.974-.01 1.73 3.348v.08h-1.995zm5.369 0H49l.01-1.432h1.704c.354 0 .653-.085.897-.255.247-.17.435-.423.562-.759.13-.34.196-.757.196-1.252v-.334a3.82 3.82 0 00-.111-.976 1.937 1.937 0 00-.319-.706 1.331 1.331 0 00-.53-.43 1.717 1.717 0 00-.722-.143h-1.719V8.353h1.72c.523 0 1.002.09 1.437.271.439.177.817.431 1.136.764.321.329.569.72.742 1.172.177.45.266.948.266 1.497v.323a4.08 4.08 0 01-.266 1.496 3.327 3.327 0 01-1.867 1.937 3.716 3.716 0 01-1.422.265zm-.647-7.725v7.725h-1.863V8.353h1.863zm10.96 5.104h-1.92V12.02h1.92c.262 0 .475-.044.637-.132a.808.808 0 00.356-.366c.078-.16.116-.338.116-.536 0-.212-.038-.409-.116-.589a.95.95 0 00-.356-.435c-.162-.113-.375-.17-.636-.17h-1.22v6.287h-1.863V8.353h3.083c.619 0 1.151.114 1.597.34a2.48 2.48 0 011.034.934c.24.392.361.841.361 1.347 0 .499-.12.934-.36 1.305-.241.372-.586.662-1.035.87-.446.206-.978.308-1.597.308zm6.325-3.48l-1.884 6.101h-2l2.839-7.725h1.268l-.223 1.624zm1.56 6.101l-1.89-6.101-.243-1.624h1.284l2.854 7.725h-2.005zm-.075-2.88v1.437h-3.963v-1.438h3.963zm2.648-4.845h3.04c.594 0 1.11.089 1.549.266.439.177.776.438 1.013.785.24.347.361.774.361 1.284 0 .442-.069.811-.207 1.109-.138.297-.33.543-.578.737a3.25 3.25 0 01-.854.472l-.61.345h-2.552l-.011-1.438h1.889c.237 0 .433-.042.589-.127a.821.821 0 00.35-.36c.081-.16.122-.35.122-.568 0-.223-.04-.414-.122-.573a.839.839 0 00-.361-.366 1.195 1.195 0 00-.578-.128h-1.178v6.287h-1.862V8.353zm4.228 7.725l-1.708-3.417 1.973-.01 1.73 3.348v.08h-1.995zm6.335-7.725v7.725h-1.862V8.353h1.862zm2.324 0v1.438h-6.457V8.353h6.457zm2.276 0l1.422 3.353 1.427-3.353h2.005l-2.483 4.95v2.775h-1.894v-2.775l-2.488-4.95h2.01zM44.337 20.37v10.299h-2.115v-10.3h2.115zm3.17 0v1.662h-8.404v-1.663h8.403zm8.12 8.644v1.655h-5.482v-1.655h5.482zm-4.789-8.645v10.3h-2.122v-10.3h2.122zm4.075 4.195v1.613h-4.768v-1.613h4.768zm.707-4.195v1.663h-5.475v-1.663h5.475zm6.607 7.605c0-.184-.028-.35-.085-.495a.935.935 0 00-.297-.41 2.635 2.635 0 00-.615-.376 8.708 8.708 0 00-1.026-.382c-.467-.15-.91-.32-1.33-.509a5.46 5.46 0 01-1.103-.658 2.963 2.963 0 01-.75-.884 2.437 2.437 0 01-.269-1.167c0-.43.094-.818.283-1.167.189-.354.453-.656.792-.906.34-.255.74-.45 1.203-.587a5.442 5.442 0 011.535-.205c.76 0 1.422.137 1.988.41.566.274 1.004.649 1.315 1.125.316.476.474 1.02.474 1.634h-2.108a1.59 1.59 0 00-.19-.792 1.292 1.292 0 00-.567-.545c-.25-.132-.566-.198-.948-.198-.367 0-.674.057-.92.17a1.224 1.224 0 00-.55.445 1.097 1.097 0 00-.185.623c0 .174.043.332.127.474.09.141.222.273.397.396.174.123.389.238.643.347.255.108.55.214.885.318.56.17 1.054.36 1.478.573.43.212.788.45 1.075.714.288.264.505.564.651.899.146.335.22.714.22 1.139 0 .448-.088.848-.262 1.202a2.47 2.47 0 01-.757.899 3.56 3.56 0 01-1.182.558 5.72 5.72 0 01-1.535.191 5.82 5.82 0 01-1.506-.198 4.577 4.577 0 01-1.351-.615 3.101 3.101 0 01-.963-1.047c-.24-.424-.36-.927-.36-1.507h2.129c0 .32.05.592.148.814.1.221.239.4.418.537.184.137.4.236.65.297.255.062.533.092.835.092.368 0 .67-.052.906-.155a1.12 1.12 0 00.53-.432c.118-.184.177-.391.177-.622zm8.17-7.605v10.3h-2.115v-10.3h2.116zm3.17 0v1.663h-8.404v-1.663h8.404zm8.12 8.645v1.655h-5.482v-1.655h5.483zM76.9 20.369v10.3h-2.123v-10.3H76.9zm4.074 4.195v1.613h-4.768v-1.613h4.768zm.707-4.195v1.663h-5.475v-1.663h5.475zm4.407 10.3h-2.242l.014-1.655h2.229c.556 0 1.025-.125 1.407-.375.382-.255.67-.625.863-1.11.198-.487.297-1.074.297-1.762v-.502c0-.529-.056-.993-.17-1.394a2.773 2.773 0 00-.487-1.012 2.042 2.042 0 00-.8-.615 2.641 2.641 0 00-1.09-.212h-2.305v-1.663h2.306a4.9 4.9 0 011.889.354 4.261 4.261 0 011.492.997c.42.434.743.953.97 1.557.23.599.346 1.266.346 2.002v.488c0 .73-.116 1.398-.347 2.002a4.46 4.46 0 01-.969 1.556c-.415.43-.912.762-1.492.997a5.081 5.081 0 01-1.91.347zm-1.04-10.3v10.3h-2.121v-10.3h2.122z" fill="#636363"/></svg>